<svg xmlns="http://www.w3.org/2000/svg" viewBox="0 0 200 200"><defs><style>.cls-1{fill:#f0db4f;}.cls-2{fill:#323330;}</style></defs><g id="Layer_2" data-name="Layer 2"><g id="Layer_1-2" data-name="Layer 1"><rect class="cls-1" width="200" height="200" rx="15"/><path class="cls-2" d="M92.62,118.19v64.87H74.72V118.19H50V101.68h67.43v16.51Z"/><path class="cls-2" d="M183.08,169.75a22.19,22.19,0,0,1-6.13,7.9,27.54,27.54,0,0,1-9.37,4.88,40.47,40.47,0,0,1-12.07,1.69,53.93,53.93,0,0,1-18.25-3.2A48.31,48.31,0,0,1,121,171.2l10.58-12.67A53.61,53.61,0,0,0,143,165.74a30.7,30.7,0,0,0,12.85,2.67c3.72,0,6.6-.68,8.66-2a6.39,6.39,0,0,0,3.08-5.63v-.24a7,7,0,0,0-.64-3.08,6.57,6.57,0,0,0-2.45-2.5,25.73,25.73,0,0,0-5-2.32c-2.14-.77-4.92-1.59-8.34-2.44A102.83,102.83,0,0,1,140,146.79a31.27,31.27,0,0,1-8.5-4.6,18.4,18.4,0,0,1-5.42-6.8,23.46,23.46,0,0,1-1.93-10.11v-.23A23.57,23.57,0,0,1,126.2,115a23,23,0,0,1,5.83-7.73,26.36,26.36,0,0,1,9-5,36.07,36.07,0,0,1,11.49-1.74,48.76,48.76,0,0,1,16.45,2.67,47.6,47.6,0,0,1,13.77,7.68l-9.3,13.48a58.85,58.85,0,0,0-10.69-5.87,27.44,27.44,0,0,0-10.47-2.15c-3.48,0-6.1.68-7.84,2a6.18,6.18,0,0,0-2.62,5.06v.23a7.26,7.26,0,0,0,.76,3.43,6.88,6.88,0,0,0,2.74,2.62,26.25,26.25,0,0,0,5.42,2.21c2.29.69,5.18,1.51,8.68,2.44a82.19,82.19,0,0,1,11,3.66,31,31,0,0,1,8.16,4.88,18.71,18.71,0,0,1,5,6.69,22.76,22.76,0,0,1,1.69,9.18V159A25.26,25.26,0,0,1,183.08,169.75Z"/></g></g></svg>