<svg xmlns="http://www.w3.org/2000/svg" viewBox="0 0 155.39 155.39"><defs><style>.cls-1{fill:#f0db4f;}.cls-2{fill:#333;}</style></defs><g id="Layer_2" data-name="Layer 2"><g id="Layer_1-2" data-name="Layer 1"><rect class="cls-1" width="155.39" height="155.39" rx="23.31"/><path class="cls-2" d="M72,91.83v50.4H58.05V91.83H38.81V79H91.2V91.83Z"/><path class="cls-2" d="M142.24,131.88a17.18,17.18,0,0,1-4.76,6.15,21.43,21.43,0,0,1-7.28,3.79,31.69,31.69,0,0,1-9.38,1.31,42.06,42.06,0,0,1-14.18-2.48A37.5,37.5,0,0,1,94,133l8.22-9.84a41.38,41.38,0,0,0,8.89,5.6,23.88,23.88,0,0,0,10,2.08,12.18,12.18,0,0,0,6.73-1.58,5,5,0,0,0,2.4-4.39v-.18a5.49,5.49,0,0,0-.5-2.39,5,5,0,0,0-1.9-1.94,20.12,20.12,0,0,0-3.9-1.81q-2.49-.9-6.47-1.89a81.86,81.86,0,0,1-8.7-2.62,24.91,24.91,0,0,1-6.61-3.57,14.53,14.53,0,0,1-4.21-5.29,18.23,18.23,0,0,1-1.49-7.85v-.18a18.32,18.32,0,0,1,1.61-7.82,17.87,17.87,0,0,1,4.53-6,20.47,20.47,0,0,1,7-3.89,28.06,28.06,0,0,1,8.92-1.35,37.75,37.75,0,0,1,12.79,2.08,36.92,36.92,0,0,1,10.7,6l-7.23,10.47a46.58,46.58,0,0,0-8.31-4.56,21.31,21.31,0,0,0-8.13-1.67q-4.07,0-6.09,1.58a4.8,4.8,0,0,0-2,3.93v.18a5.74,5.74,0,0,0,.58,2.67,5.37,5.37,0,0,0,2.13,2,20.7,20.7,0,0,0,4.21,1.72q2.67.81,6.75,1.89a65,65,0,0,1,8.56,2.85,24,24,0,0,1,6.34,3.79,14.49,14.49,0,0,1,3.89,5.19,17.57,17.57,0,0,1,1.32,7.14v.18A19.47,19.47,0,0,1,142.24,131.88Z"/></g></g></svg>